<svg width="129" height="50" viewBox="0 0 129 50" fill="none" xmlns="http://www.w3.org/2000/svg">
<path d="M9.26079 17.9791C7.58679 17.9791 6.07222 17.6116 4.71708 16.8764C3.37789 16.1253 2.32566 15.1025 1.5604 13.808C0.795148 12.4975 0.41252 11.0272 0.41252 9.3971C0.41252 7.76699 0.795148 6.30469 1.5604 5.01019C2.32566 3.69971 3.38586 2.6769 4.741 1.94175C6.09614 1.19062 7.61071 0.815055 9.2847 0.815055C10.592 0.815055 11.7877 1.0388 12.8718 1.48628C13.9559 1.91778 14.8806 2.56502 15.6459 3.42802L14.0915 4.93827C12.832 3.61181 11.2616 2.94858 9.38036 2.94858C8.13682 2.94858 7.01285 3.22826 6.00845 3.78761C5.00405 4.34696 4.21488 5.12206 3.64094 6.11291C3.08294 7.08778 2.80394 8.18251 2.80394 9.3971C2.80394 10.6117 3.08294 11.7144 3.64094 12.7053C4.21488 13.6801 5.00405 14.4472 6.00845 15.0066C7.01285 15.5659 8.13682 15.8456 9.38036 15.8456C11.2457 15.8456 12.816 15.1744 14.0915 13.832L15.6459 15.3422C14.8806 16.2052 13.948 16.8604 12.8479 17.3079C11.7638 17.7554 10.5681 17.9791 9.26079 17.9791Z" fill="#20BF55"/>
<path d="M23.614 17.9312C22.3545 17.9312 21.2226 17.6515 20.2182 17.0922C19.2138 16.5328 18.4246 15.7657 17.8507 14.7908C17.2927 13.8 17.0137 12.6813 17.0137 11.4347C17.0137 10.1882 17.2927 9.07747 17.8507 8.1026C18.4246 7.11175 19.2138 6.34464 20.2182 5.80127C21.2226 5.24192 22.3545 4.96224 23.614 4.96224C24.8735 4.96224 25.9975 5.24192 26.9859 5.80127C27.9903 6.34464 28.7715 7.11175 29.3295 8.1026C29.9034 9.07747 30.1904 10.1882 30.1904 11.4347C30.1904 12.6813 29.9034 13.8 29.3295 14.7908C28.7715 15.7657 27.9903 16.5328 26.9859 17.0922C25.9975 17.6515 24.8735 17.9312 23.614 17.9312ZM23.614 15.9175C24.4271 15.9175 25.1525 15.7337 25.7902 15.3662C26.4438 14.9826 26.954 14.4552 27.3207 13.784C27.6874 13.0968 27.8707 12.3137 27.8707 11.4347C27.8707 10.5558 27.6874 9.78065 27.3207 9.10943C26.954 8.42223 26.4438 7.89484 25.7902 7.52727C25.1525 7.15969 24.4271 6.97591 23.614 6.97591C22.8009 6.97591 22.0675 7.15969 21.4139 7.52727C20.7762 7.89484 20.266 8.42223 19.8834 9.10943C19.5167 9.78065 19.3334 10.5558 19.3334 11.4347C19.3334 12.3137 19.5167 13.0968 19.8834 13.784C20.266 14.4552 20.7762 14.9826 21.4139 15.3662C22.0675 15.7337 22.8009 15.9175 23.614 15.9175Z" fill="#20BF55"/>
<path d="M37.8641 4.96224C39.6178 4.96224 40.957 5.39374 41.8817 6.25674C42.8223 7.11974 43.2926 8.40625 43.2926 10.1163V17.7874H41.1164V16.1093C40.7338 16.7006 40.1838 17.1561 39.4663 17.4757C38.7649 17.7794 37.9279 17.9312 36.9553 17.9312C35.5364 17.9312 34.3965 17.5876 33.5356 16.9004C32.6906 16.2132 32.2682 15.3102 32.2682 14.1915C32.2682 13.0728 32.6747 12.1779 33.4878 11.5067C34.3009 10.8194 35.5922 10.4758 37.3619 10.4758H40.9968V10.0204C40.9968 9.02953 40.7099 8.27041 40.1359 7.74302C39.562 7.21563 38.717 6.95194 37.601 6.95194C36.8517 6.95194 36.1183 7.07979 35.4009 7.33549C34.6835 7.57521 34.0777 7.90283 33.5834 8.31835L32.6269 6.59235C33.2805 6.06497 34.0617 5.66543 34.9705 5.39374C35.8792 5.10608 36.8437 4.96224 37.8641 4.96224ZM37.338 16.1573C38.2148 16.1573 38.9721 15.9655 39.6098 15.5819C40.2475 15.1824 40.7099 14.623 40.9968 13.9039V12.1299H37.4575C35.5125 12.1299 34.54 12.7852 34.54 14.0956C34.54 14.7349 34.7871 15.2383 35.2813 15.6059C35.7756 15.9735 36.4611 16.1573 37.338 16.1573Z" fill="#20BF55"/>
<path d="M53.1354 17.9312C51.844 17.9312 50.6881 17.6515 49.6678 17.0922C48.6634 16.5328 47.8742 15.7657 47.3003 14.7908C46.7264 13.8 46.4394 12.6813 46.4394 11.4347C46.4394 10.1882 46.7264 9.07747 47.3003 8.1026C47.8742 7.11175 48.6634 6.34464 49.6678 5.80127C50.6881 5.24192 51.844 4.96224 53.1354 4.96224C54.2833 4.96224 55.3036 5.19397 56.1964 5.65744C57.1051 6.1209 57.8066 6.79212 58.3008 7.6711L56.5551 8.79779C56.1565 8.1905 55.6623 7.73503 55.0724 7.43138C54.4825 7.12773 53.8289 6.97591 53.1115 6.97591C52.2824 6.97591 51.5331 7.15969 50.8635 7.52727C50.2099 7.89484 49.6917 8.42223 49.3091 9.10943C48.9424 9.78065 48.7591 10.5558 48.7591 11.4347C48.7591 12.3297 48.9424 13.1208 49.3091 13.808C49.6917 14.4792 50.2099 14.9986 50.8635 15.3662C51.5331 15.7337 52.2824 15.9175 53.1115 15.9175C53.8289 15.9175 54.4825 15.7657 55.0724 15.4621C55.6623 15.1584 56.1565 14.7029 56.5551 14.0956L58.3008 15.1984C57.8066 16.0774 57.1051 16.7566 56.1964 17.236C55.3036 17.6995 54.2833 17.9312 53.1354 17.9312Z" fill="#20BF55"/>
<path d="M67.8774 4.96224C69.4876 4.96224 70.763 5.4337 71.7037 6.3766C72.6602 7.30353 73.1385 8.66994 73.1385 10.4758V17.7874H70.8427V10.7395C70.8427 9.50897 70.5478 8.58204 69.9579 7.95877C69.368 7.33549 68.5231 7.02385 67.423 7.02385C66.1795 7.02385 65.199 7.39143 64.4816 8.12657C63.7641 8.84574 63.4054 9.88453 63.4054 11.243V17.7874H61.1096V0H63.4054V6.88002C63.8837 6.27272 64.5055 5.80127 65.2707 5.46566C66.0519 5.13005 66.9208 4.96224 67.8774 4.96224Z" fill="#20BF55"/>
<path d="M18.4379 36.9112C19.8727 37.3667 20.9967 38.1338 21.8098 39.2125C22.6229 40.2673 23.0294 41.5738 23.0294 43.132C23.0294 45.3374 22.1685 47.0394 20.4467 48.238C18.7488 49.4127 16.2617 50 12.9854 50H0V24.8292H12.268C15.329 24.8292 17.6726 25.4165 19.2988 26.5912C20.9489 27.7658 21.7739 29.3599 21.7739 31.3736C21.7739 32.5962 21.475 33.6869 20.8771 34.6458C20.3032 35.6047 19.4901 36.3598 18.4379 36.9112ZM5.77529 29.2161V35.1492H11.5506C12.9854 35.1492 14.0735 34.8975 14.8149 34.3941C15.5562 33.8907 15.9269 33.1475 15.9269 32.1647C15.9269 31.1818 15.5562 30.4507 14.8149 29.9712C14.0735 29.4678 12.9854 29.2161 11.5506 29.2161H5.77529ZM12.555 45.6131C14.0855 45.6131 15.2334 45.3614 15.9986 44.858C16.7878 44.3545 17.1824 43.5755 17.1824 42.5207C17.1824 40.4351 15.6399 39.3923 12.555 39.3923H5.77529V45.6131H12.555Z" fill="#20BF55"/>
<path d="M48.5758 24.8292H59.9829C62.7091 24.8292 65.1125 25.3566 67.193 26.4114C69.2975 27.4422 70.9236 28.9045 72.0715 30.7983C73.2433 32.6921 73.8292 34.8975 73.8292 37.4146C73.8292 39.9317 73.2433 42.1371 72.0715 44.0309C70.9236 45.9247 69.2975 47.399 67.193 48.4538C65.1125 49.4846 62.7091 50 59.9829 50H48.5758V24.8292ZM59.6959 45.2175C62.2069 45.2175 64.2037 44.5224 65.6864 43.132C67.193 41.7176 67.9463 39.8118 67.9463 37.4146C67.9463 35.0174 67.193 33.1236 65.6864 31.7332C64.2037 30.3188 62.2069 29.6116 59.6959 29.6116H54.3869V45.2175H59.6959Z" fill="#20BF55"/>
<path d="M78.2117 24.8292H89.6188C92.345 24.8292 94.7484 25.3566 96.8289 26.4114C98.9334 27.4422 100.56 28.9045 101.707 30.7983C102.879 32.6921 103.465 34.8975 103.465 37.4146C103.465 39.9317 102.879 42.1371 101.707 44.0309C100.56 45.9247 98.9334 47.399 96.8289 48.4538C94.7484 49.4846 92.345 50 89.6188 50H78.2117V24.8292ZM89.3318 45.2175C91.8428 45.2175 93.8396 44.5224 95.3223 43.132C96.8289 41.7176 97.5822 39.8118 97.5822 37.4146C97.5822 35.0174 96.8289 33.1236 95.3223 31.7332C93.8396 30.3188 91.8428 29.6116 89.3318 29.6116H84.0229V45.2175H89.3318Z" fill="#20BF55"/>
<path d="M118.814 41.0823V50H113.003V41.0104L103.282 24.8292H109.452L116.16 36.0122L122.868 24.8292H128.571L118.814 41.0823Z" fill="#20BF55"/>
<path d="M26.1681 33.5191H44.8511V40.6359C44.8511 40.9836 44.8511 41.1575 44.8463 41.3046C44.6917 46.0386 40.8993 49.8402 36.1767 49.9952C36.0301 50 35.8566 50 35.5096 50C35.1627 50 34.9892 50 34.8426 49.9952C30.12 49.8402 26.3276 46.0386 26.173 41.3046C26.1682 41.1575 26.1681 40.9836 26.1681 40.6359V33.5191Z" fill="#20BF55"/>
<path d="M31.773 28.837C31.773 30.3886 30.5183 31.6463 28.9706 31.6463C27.4228 31.6463 26.1681 30.3886 26.1681 28.837C26.1681 27.2855 27.4228 26.0278 28.9706 26.0278C30.5183 26.0278 31.773 27.2855 31.773 28.837Z" fill="#20BF55"/>
<path d="M44.4775 28.837C44.4775 30.3886 43.2228 31.6463 41.675 31.6463C40.1273 31.6463 38.8726 30.3886 38.8726 28.837C38.8726 27.2855 40.1273 26.0278 41.675 26.0278C43.2228 26.0278 44.4775 27.2855 44.4775 28.837Z" fill="#20BF55"/>
</svg>
