<svg id="Layer_1" data-name="Layer 1" xmlns="http://www.w3.org/2000/svg" viewBox="0 0 515.37 280.37"><defs><style>.cls-1,.cls-2{font-size:97.35px;font-family:BerlinSansFBDemi-Bold, Berlin Sans FB Demi;font-weight:700;}.cls-1,.cls-2,.cls-3{fill:#009cda;}.cls-1{letter-spacing:0.06em;}.cls-2{letter-spacing:0.05em;}.cls-4,.cls-5{fill:#67a55d;}.cls-5{stroke:#67a55d;stroke-linecap:round;stroke-width:3px;}.cls-5,.cls-6{stroke-miterlimit:10;}.cls-6,.cls-7{fill:none;}.cls-6{stroke:#202e65;}</style></defs><text class="cls-1" transform="translate(273.8 166.22)">HAN</text><text class="cls-2" transform="translate(248.68 260.46)">OLAT</text><path class="cls-3" d="M375.39,622.25h-5V582.43a3.3,3.3,0,0,1,2.32-3.14c28.75-9.21,48.64-26.52,59.28-53.92C453,471.14,419.24,412,361.84,403c-10-1.58-20.44-1.07-30.67-1.15-22.77-.16-45.53-.06-68.3,0-.43,0-.87,0-1.32,0a3.32,3.32,0,0,0-3.16,3.31v1.75c0,12.63,0,28.33-.08,42.29-.06,14.17-.16,26.56-.31,32.2a3.3,3.3,0,0,1-3.3,3.21H221.33a3.32,3.32,0,0,1-3.32-3.31V362.52a3.3,3.3,0,0,1,3.07-3.3c.36,0,.73,0,1.1,0,43.13,0,86.27-.27,129.4.3,68.39.89,110.76,50.23,124,96.41C496.81,530.14,450.61,606.14,375.39,622.25Z" transform="translate(-214.38 -359.13)"/><path class="cls-4" d="M370.35,463.23v159H327.21c-.9-1.15-.34-2.86-.34-5q.15-67.87.12-135.68c0-12.83,0-5.07.1-17.9,0-.15,0-.29,0-.42Z" transform="translate(-214.38 -359.13)"/><path class="cls-4" d="M312,512.92V622.26H271.34v-9.54c0-38.78,0-59.75,0-98.53,0-.43,0-.87,0-1.27Z" transform="translate(-214.38 -359.13)"/><path class="cls-4" d="M258.07,556.24v66H218V604.62c0-26.06,0-17.46,0-43.52,0-1.5.06-3.28.19-4.86Z" transform="translate(-214.38 -359.13)"/><line class="cls-5" x1="23.92" y1="169.62" x2="23.92" y2="212.65"/><line class="cls-5" x1="77.26" y1="125.14" x2="77.26" y2="168.17"/><line class="cls-5" x1="135.09" y1="77.4" x2="135.09" y2="120.43"/><path class="cls-6" d="M370.35,575.55" transform="translate(-214.38 -359.13)"/><path class="cls-6" d="M383.2,538.53" transform="translate(-214.38 -359.13)"/><path class="cls-6" d="M383.2,581.75" transform="translate(-214.38 -359.13)"/><path class="cls-6" d="M370.35,635" transform="translate(-214.38 -359.13)"/><polyline class="cls-7" points="53.81 90.06 43.46 90.06 3.64 90.06 0 90.06"/><polyline class="cls-7" points="112.5 263.12 112.84 263.12 113.64 263.12 155.97 263.12 161.01 263.12"/>
</svg>